<svg width="16" height="16" viewBox="0 0 16 16" fill="none" xmlns="http://www.w3.org/2000/svg">
<path fill-rule="evenodd" clip-rule="evenodd" d="M11.0472 12.1065C9.88879 12.9861 8.43684 13.5094 6.86075 13.5094C3.07166 13.5094 0 10.4852 0 6.75468C0 3.02417 3.07166 0 6.86075 0C10.6498 0 13.7215 3.02417 13.7215 6.75468C13.7215 8.36144 13.1517 9.83718 12.2001 10.9967L15.5914 14.3763C15.9063 14.6863 15.9063 15.1888 15.5914 15.4988C15.2766 15.8088 14.7661 15.8088 14.4513 15.4988L11.0472 12.1065ZM12.1215 6.75468C12.1215 9.57812 9.78977 11.9094 6.86075 11.9094C3.93172 11.9094 1.6 9.57812 1.6 6.75468C1.6 3.93124 3.93172 1.6 6.86075 1.6C9.78977 1.6 12.1215 3.93124 12.1215 6.75468Z" fill="white"/>
</svg>
